# Blender v2.78 (sub 0) OBJ File: ''
# www.blender.org
#mtllib VRFIRST.MTL
o Enkei_Ground__VRFirst_Enkei_Ground
v -15260.632812 1406.858154 46967.371094
v -5600.536621 1406.857910 9700.414062
v -29027.439453 1406.858154 39952.832031
v -0.007391 1406.858154 49384.445312
v -39952.847656 1406.858154 29027.425781
v 15260.625000 1406.858154 46967.402344
v 5600.537109 1406.858032 9700.414062
v -46967.386719 1406.858154 15260.618164
v 29027.443359 1406.858154 39952.855469
v 39952.847656 1406.858154 29027.439453
v 46967.390625 1406.858154 15260.625000
v -46967.386719 1406.858154 -15260.634766
v -49384.429688 1406.858154 -0.005225
v 49384.437500 1406.858154 -0.005225
v 11201.072266 1406.857910 0.000067
v -39952.851562 1406.858154 -29027.447266
v 46967.382812 1406.858154 -15260.634766
v 39952.839844 1406.858154 -29027.447266
v 9700.414062 1406.858154 -5600.537109
v -15260.634766 1406.858154 -46967.386719
v -29027.445312 1406.858154 -39952.843750
v 29027.433594 1406.858154 -39952.851562
v 5600.537109 1406.858398 -9700.414062
v -0.007391 1406.858154 -49384.437500
v 15260.622070 1406.858154 -46967.386719
v 4729.369141 1406.858154 0.000000
v 3508.254150 1406.858154 2373.632812
v 4850.207031 1406.858154 -2800.268311
v 1941.107544 1406.293945 4376.024902
v 9700.414062 1406.858398 5600.536621
v 2800.268311 1406.858154 -4423.003418
v 0.000000 1406.858398 4880.809570
v 0.000000 1406.858154 -11201.073242
v 0.000000 1406.858154 -4528.757812
v -3315.047607 1406.858398 4869.741211
v -0.000022 1406.858398 11201.074219
v -5600.536621 1406.858154 -9700.414062
v -1758.206665 1406.858154 -3294.138916
v -5653.855469 1406.858398 3316.270752
v -9700.414062 1406.858154 -5600.537109
v -3808.145264 1406.858154 -1244.200439
v -5859.316895 1406.858154 751.957336
v -9700.414062 1406.857788 5600.536621
v -11201.073242 1406.858398 0.000090
vt -0.7452 0.0433
vt 1.0015 0.5058
vt -0.7751 0.7679
vt 1.0690 0.2422
vt -0.4929 -0.6365
vt 1.0748 0.7679
vt -0.5797 1.4662
vt -0.0428 -1.2051
vt 1.2592 0.0477
vt 1.2694 0.9582
vt -0.1780 2.0700
vt 0.5609 -1.6068
vt 1.2592 -1.8023
vt 1.9838 -1.7724
vt 1.5213 -0.0257
vt 1.5330 1.0257
vt 1.0705 2.7724
vt 0.3906 2.5201
vt 2.6637 -1.5201
vt 1.7849 0.0418
vt 1.7951 0.9523
vt 1.7951 2.8023
vt 3.2323 -1.0700
vt 3.6340 -0.4662
vt 1.9795 0.2321
vt 1.9853 0.7578
vt 3.0972 2.2051
vt 2.4934 2.6068
vt 3.8295 0.2321
vt 2.0528 0.4942
vt 3.5472 1.6365
vt 3.7996 0.9567
vt 0.6032 0.3179
vt 0.4864 0.3135
vt 0.7422 0.0708
vt 0.9238 0.2484
vt 0.7127 0.3734
vt 0.3763 0.3303
vt 0.4962 0.0078
vt 0.9922 0.4930
vt 0.7306 0.4865
vt 0.3153 0.3936
vt 0.2516 0.0763
vt 0.9292 0.7390
vt 0.6745 0.5957
vt 0.2445 0.5204
vt 0.0740 0.2579
vt 0.7517 0.9206
vt 0.5896 0.6363
vt 0.2536 0.6431
vt 0.0110 0.5039
vt 0.5071 0.9891
vt 0.4673 0.6705
vt 0.3471 0.7060
vt 0.0795 0.7485
vt 0.2610 0.9261
vn 0.0000 1.0000 0.0000
vn -0.0000 1.0000 0.0001
vn 0.0001 1.0000 -0.0001
usemtl VRFirst_Enkei_Ground
s 1
f 1/1/1 2/2/1 3/3/1
f 1/1/1 36/4/1 2/2/1
f 1/1/1 4/5/1 36/4/1
f 2/2/1 43/6/1 3/3/1
f 3/3/1 43/6/1 5/7/1
f 36/4/1 4/5/1 6/8/1
f 36/4/1 6/8/1 7/9/1
f 43/6/1 44/10/1 8/11/1
f 43/6/1 8/11/1 5/7/1
f 6/8/1 9/12/1 7/9/1
f 7/9/1 9/12/1 10/13/1
f 7/9/1 10/13/1 11/14/1
f 7/9/1 11/14/1 30/15/1
f 44/10/1 40/16/1 12/17/1
f 44/10/1 12/17/1 13/18/1
f 44/10/1 13/18/1 8/11/1
f 11/14/1 14/19/1 30/15/1
f 30/15/1 14/19/1 15/20/1
f 40/16/1 37/21/1 16/22/1
f 40/16/1 16/22/1 12/17/1
f 14/19/1 17/23/1 15/20/1
f 15/20/1 17/23/1 18/24/1
f 15/20/1 18/24/1 19/25/1
f 37/21/1 33/26/1 20/27/1
f 37/21/1 20/27/1 21/28/1
f 37/21/1 21/28/1 16/22/1
f 18/24/1 22/29/1 19/25/1
f 19/25/1 22/29/1 23/30/1
f 33/26/1 23/30/1 24/31/1
f 33/26/1 24/31/1 20/27/1
f 22/29/1 25/32/1 23/30/1
f 23/30/1 25/32/1 24/31/1
f 26/33/1 27/34/2 15/35/1
f 26/33/1 15/35/1 19/36/1
f 26/33/1 19/36/1 28/37/1
f 27/34/2 29/38/3 30/39/1
f 27/34/2 30/39/1 15/35/1
f 19/36/1 23/40/1 28/37/1
f 28/37/1 23/40/1 31/41/1
f 29/38/3 32/42/3 7/43/1
f 29/38/3 7/43/1 30/39/1
f 23/40/1 33/44/1 31/41/1
f 31/41/1 33/44/1 34/45/1
f 32/42/3 35/46/1 36/47/1
f 32/42/3 36/47/1 7/43/1
f 33/44/1 37/48/1 34/45/1
f 34/45/1 37/48/1 38/49/1
f 35/46/1 39/50/1 2/51/1
f 35/46/1 2/51/1 36/47/1
f 37/48/1 40/52/1 38/49/1
f 38/49/1 40/52/1 41/53/1
f 39/50/1 42/54/1 43/55/1
f 39/50/1 43/55/1 2/51/1
f 40/52/1 44/56/1 41/53/1
f 41/53/1 44/56/1 42/54/1
f 42/54/1 44/56/1 43/55/1
o Enkei_Far_Plane__VRFirst_Enkei_Far_Plane
v -5253.062012 4877.877930 19559.878906
v 5253.062012 4877.877930 19559.878906
v -5253.062012 1406.858398 19559.878906
v 5253.062012 1406.858398 19559.878906
v 5708.394043 4877.877930 19431.875000
v 14675.548828 4877.877930 13957.499023
v 5708.394043 1406.858398 19431.875000
v 14675.548828 1406.858398 13957.499023
v 15432.295898 4877.877930 13115.935547
v 19926.886719 4877.877930 3619.762695
v 15432.295898 1406.858398 13115.935547
v 19926.886719 1406.858398 3619.762695
v 20086.269531 4877.877930 2593.317383
v 18682.933594 4877.877930 -7818.661133
v 20086.269531 1406.858398 2593.317383
v 18682.933594 1406.858398 -7818.661133
v 18294.980469 4877.877930 -8687.760742
v 11480.934570 4877.877930 -16684.474609
v 18294.980469 1406.858398 -8687.760742
v 11480.934570 1406.858398 -16684.474609
v 8591.013672 4877.877930 -18340.609375
v -1753.381836 4877.877930 -20176.945312
v 8591.013672 1406.858398 -18340.609375
v -1753.381836 1406.858398 -20176.945312
v -4540.990723 4877.877930 -19737.347656
v -13818.255859 4877.877930 -14806.730469
v -4540.990723 1406.858398 -19737.347656
v -13818.255859 1406.858398 -14806.730469
v -15233.771484 4877.877930 -13346.000000
v -19870.333984 4877.877930 -3918.332031
v -15233.771484 1406.858398 -13346.000000
v -19870.333984 1406.858398 -3918.332031
v -20189.320312 4877.877930 -1604.634766
v -18276.798828 4877.877930 8725.946289
v -20189.320312 1406.858398 -1604.634766
v -18276.798828 1406.858398 8725.946289
v -17154.480469 4877.877930 10766.024414
v -9452.693359 4877.877930 17911.730469
v -17154.480469 1406.858398 10766.024414
v -9452.693359 1406.858398 17911.730469
v -13877.010742 4568.846191 19607.498047
v -4181.662109 4568.846191 23654.580078
v -13877.010742 1406.857910 19607.498047
v -4181.662109 1406.857910 23654.580078
v -1627.478516 4568.846191 23966.160156
v 8756.458008 4568.846191 22368.503906
v -1627.478516 1406.857910 23966.160156
v 8756.458008 1406.857910 22368.503906
v 11785.956055 4568.846191 20931.238281
v 19591.728516 4568.846191 13899.270508
v 11785.956055 1406.857910 20931.238281
v 19591.728516 1406.857910 13899.270508
v 21285.390625 4568.846191 11133.625977
v 24001.167969 4568.846191 984.577148
v 21285.390625 1406.857910 11133.625977
v 24001.167969 1406.857910 984.577148
v 23924.535156 4568.846191 -2154.548340
v 20716.765625 4568.846191 -12158.990234
v 23924.535156 1406.857910 -2154.548340
v 20716.765625 1406.857910 -12158.990234
v 17090.531250 4568.846191 -16880.144531
v 8251.808594 4568.846191 -22559.548828
v 17090.531250 1406.857910 -16880.144531
v 8251.808594 1406.857910 -22559.548828
v 3051.901123 4568.846191 -23826.695312
v -7408.752930 4568.846191 -22850.292969
v 3051.901123 1406.857910 -23826.695312
v -7408.752930 1406.857910 -22850.292969
v -11470.582031 4568.846191 -21105.714844
v -19380.980469 4568.846191 -14191.654297
v -11470.582031 1406.857910 -21105.714844
v -19380.980469 1406.857910 -14191.654297
v -21806.039062 4568.846191 -10075.820312
v -24020.568359 4568.846191 194.257812
v -21806.039062 1406.857910 -10075.820312
v -24020.568359 1406.857910 194.257812
v -23508.880859 4568.846191 4935.382812
v -19154.062500 4568.846191 14496.460938
v -23508.880859 1406.857910 4935.382812
v -19154.062500 1406.857910 14496.460938
v -5525.528809 4185.862305 29274.367188
v 4980.141113 4185.862305 29372.066406
v -5525.528809 1406.857910 29274.367188
v 4980.141113 1406.857910 29372.066406
v 10537.719727 4185.862305 27865.328125
v 19555.394531 4185.862305 22474.578125
v 10537.719727 1406.857910 27865.328125
v 19555.394531 1406.857910 22474.578125
v 24096.369141 4185.862305 17518.134766
v 28679.072266 4185.862305 8064.167969
v 24096.369141 1406.857910 17518.134766
v 28679.072266 1406.857910 8064.167969
v 29750.101562 4185.862305 1565.749023
v 28443.650391 4185.862305 -8858.829102
v 29750.101562 1406.857910 1565.749023
v 28443.650391 1406.857910 -8858.829102
v 25865.857422 4185.862305 -14780.981445
v 19126.468750 4185.862305 -22840.712891
v 25865.857422 1406.857910 -14780.981445
v 19126.468750 1406.857910 -22840.712891
v 10557.253906 4185.862305 -27857.933594
v 230.382324 4185.862305 -29790.384766
v 10557.253906 1406.857910 -27857.933594
v 230.382324 1406.857910 -29790.384766
v -8859.488281 4185.862305 -28443.443359
v -18182.203125 4185.862305 -23599.310547
v -8859.488281 1406.857910 -28443.443359
v -18182.203125 1406.857910 -23599.310547
v -23830.820312 4185.862305 -17877.697266
v -28554.851562 4185.862305 -8493.552734
v -23830.820312 1406.857910 -17877.697266
v -28554.851562 1406.857910 -8493.552734
v -29791.089844 4185.862305 -104.135742
v -27974.718750 4185.862305 10243.784180
v -29791.089844 1406.857910 -104.135742
v -27974.718750 1406.857910 10243.784180
v -23961.500000 4185.862305 17702.164062
v -16326.494141 4185.862305 24919.181641
v -23961.500000 1406.857910 17702.164062
v -16326.494141 1406.857910 24919.181641
v -16155.692383 4109.247070 29013.152344
v -6283.739258 4109.247070 32608.037109
v -16155.692383 1406.858154 29013.152344
v -6283.739258 1406.858154 32608.037109
v 1328.586426 4109.247070 33181.386719
v 11627.634766 4109.247070 31105.748047
v 1328.586426 1406.858154 33181.386719
v 11627.634766 1406.858154 31105.748047
v 19312.609375 4109.247070 27014.673828
v 26785.205078 4109.247070 19629.625000
v 19312.609375 1406.858154 27014.673828
v 26785.205078 1406.858154 19629.625000
v 30911.128906 4109.247070 12135.547852
v 33155.171875 4109.247070 1871.877930
v 30911.128906 1406.858154 12135.547852
v 33155.171875 1406.858154 1871.877930
v 32561.531250 4109.247070 -6520.439941
v 28895.031250 4109.247070 -16366.019531
v 32561.531250 1406.858154 -6520.439941
v 28895.031250 1406.858154 -16366.019531
v 20978.123047 4109.247070 -25742.726562
v 11886.475586 4109.247070 -31007.761719
v 20978.123047 1406.858154 -25742.726562
v 11886.475586 1406.858154 -31007.761719
v 649.898438 4109.247070 -33201.613281
v -9754.483398 4109.247070 -31743.023438
v 649.898438 1406.858154 -33201.613281
v -9754.483398 1406.858154 -31743.023438
v -18905.117188 4109.247070 -27301.394531
v -26487.675781 4109.247070 -20029.292969
v -18905.117188 1406.858154 -27301.394531
v -26487.675781 1406.858154 -20029.292969
v -31469.345703 4109.247070 -10604.234375
v -33207.085938 4109.247070 -242.820801
v -31469.345703 1406.858154 -10604.234375
v -33207.085938 1406.858154 -242.820801
v -31576.552734 4109.247070 10280.603516
v -26784.708984 4109.247070 19630.304688
v -31576.552734 1406.858154 10280.603516
v -26784.708984 1406.858154 19630.304688
v -4470.324707 3992.996582 37629.003906
v 6033.520996 3992.996582 37410.191406
v -4470.324707 1406.858398 37629.003906
v 6033.520996 1406.858398 37410.191406
v 15791.666016 3992.996582 34446.324219
v 24642.859375 3992.996582 28786.375000
v 15791.666016 1406.858398 34446.324219
v 24642.859375 1406.858398 28786.375000
v 32099.298828 3992.996582 20138.535156
v 36395.136719 3992.996582 10550.813477
v 32099.298828 1406.858398 20138.535156
v 36395.136719 1406.858398 10550.813477
v 37888.921875 3992.996582 -595.953125
v 36269.039062 3992.996582 -10976.446289
v 37888.921875 1406.858398 -595.953125
v 36269.039062 1406.858398 -10976.446289
v 31540.587891 3992.996582 -21002.787109
v 24561.468750 3992.996582 -28855.847656
v 31540.587891 1406.858398 -21002.787109
v 24561.468750 1406.858398 -28855.847656
v 10978.576172 3992.996582 -36268.394531
v 598.178711 3992.996582 -37888.886719
v 10978.576172 1406.858398 -36268.394531
v 598.178711 1406.858398 -37888.886719
v -13712.175781 3992.996582 -35325.656250
v -22884.738281 3992.996582 -30202.890625
v -13712.175781 1406.858398 -35325.656250
v -22884.738281 1406.858398 -30202.890625
v -31793.533203 3992.996582 -20617.876953
v -36232.738281 3992.996582 -11095.687500
v -31793.533203 1406.858398 -20617.876953
v -36232.738281 1406.858398 -11095.687500
v -37814.046875 3992.996582 2454.305664
v -35686.781250 3992.996582 12742.813477
v -37814.046875 1406.858398 2454.305664
v -35686.781250 1406.858398 12742.813477
v -28870.332031 3992.996582 24544.443359
v -21021.390625 3992.996582 31528.193359
v -28870.332031 1406.858398 24544.443359
v -21021.390625 1406.858398 31528.193359
v 15395.142578 3955.772949 39254.183594
v 24621.855469 3955.772949 34229.601562
v 15395.142578 1406.858398 39254.183594
v 24621.855469 1406.858398 34229.601562
v 33594.000000 3955.772949 25482.238281
v 38851.019531 3955.772949 16385.953125
v 33594.000000 1406.858398 25482.238281
v 38851.019531 1406.858398 16385.953125
v 42066.835938 3955.772949 2877.997559
v 41472.515625 3955.772949 -7611.303223
v 42066.835938 1406.858398 2877.997559
v 41472.515625 1406.858398 -7611.303223
v 36846.050781 3955.772949 -20500.484375
v 30634.052734 3955.772949 -28973.367188
v 36846.050781 1406.858398 -20500.484375
v 30634.052734 1406.858398 -28973.367188
v 19893.273438 3955.772949 -37177.398438
v 10084.576172 3955.772949 -40941.453125
v 19893.273438 1406.858398 -37177.398438
v 10084.576172 1406.858398 -40941.453125
v -8297.024414 3955.772949 -41340.789062
v -18259.935547 3955.772949 -38006.265625
v -8297.024414 1406.858398 -41340.789062
v -18259.935547 1406.858398 -38006.265625
v -32016.769531 3955.772949 -27437.707031
v -37806.191406 3955.772949 -18670.652344
v -32016.769531 1406.858398 -27437.707031
v -37806.191406 1406.858398 -18670.652344
v -42018.914062 3955.772949 -3508.830566
v -41582.039062 3955.772949 6988.206543
v -42018.914062 1406.858398 -3508.830566
v -41582.039062 1406.858398 6988.206543
v -35795.785156 3955.772949 22283.691406
v -29175.539062 3955.772949 30441.570312
v -35795.785156 1406.858398 22283.691406
v -29175.539062 1406.858398 30441.570312
v -15412.796875 3955.772949 39247.253906
v -5231.461914 3955.772949 41839.375000
v -15412.796875 1406.858398 39247.253906
v -5231.461914 1406.858398 41839.375000
vt 1.0000 1.0000
vt 0.0000 1.0000
vt 1.0000 0.0000
vt 0.0000 0.0000
vt 1.0000 1.0000
vt 0.0000 1.0000
vt 1.0000 0.0000
vt 0.0000 0.0000
vt 1.0000 1.0000
vt 0.0000 1.0000
vt 1.0000 0.0000
vt 0.0000 0.0000
vt 1.0000 1.0000
vt 0.0000 1.0000
vt 1.0000 0.0000
vt 0.0000 0.0000
vt 1.0000 1.0000
vt 0.0000 1.0000
vt 1.0000 0.0000
vt 0.0000 0.0000
vt 1.0000 1.0000
vt 0.0000 1.0000
vt 1.0000 0.0000
vt 0.0000 0.0000
vt 1.0000 1.0000
vt 0.0000 1.0000
vt 1.0000 0.0000
vt 0.0000 0.0000
vt 1.0000 1.0000
vt 0.0000 1.0000
vt 1.0000 0.0000
vt 0.0000 0.0000
vt 1.0000 1.0000
vt 0.0000 1.0000
vt 1.0000 0.0000
vt 0.0000 0.0000
vt 1.0000 1.0000
vt 0.0000 1.0000
vt 1.0000 0.0000
vt 0.0000 0.0000
vt 1.0000 1.0000
vt 0.0000 1.0000
vt 1.0000 0.0000
vt 0.0000 0.0000
vt 1.0000 1.0000
vt 0.0000 1.0000
vt 1.0000 0.0000
vt 0.0000 0.0000
vt 1.0000 1.0000
vt 0.0000 1.0000
vt 1.0000 0.0000
vt 0.0000 0.0000
vt 1.0000 1.0000
vt 0.0000 1.0000
vt 1.0000 0.0000
vt 0.0000 0.0000
vt 1.0000 1.0000
vt 0.0000 1.0000
vt 1.0000 0.0000
vt 0.0000 0.0000
vt 1.0000 1.0000
vt 0.0000 1.0000
vt 1.0000 0.0000
vt 0.0000 0.0000
vt 1.0000 1.0000
vt 0.0000 1.0000
vt 1.0000 0.0000
vt 0.0000 0.0000
vt 1.0000 1.0000
vt 0.0000 1.0000
vt 1.0000 0.0000
vt 0.0000 0.0000
vt 1.0000 1.0000
vt 0.0000 1.0000
vt 1.0000 0.0000
vt 0.0000 0.0000
vt 1.0000 1.0000
vt 0.0000 1.0000
vt 1.0000 0.0000
vt 0.0000 0.0000
vt 1.0000 1.0000
vt 0.0000 1.0000
vt 1.0000 0.0000
vt 0.0000 0.0000
vt 1.0000 1.0000
vt 0.0000 1.0000
vt 1.0000 0.0000
vt 0.0000 0.0000
vt 1.0000 1.0000
vt 0.0000 1.0000
vt 1.0000 0.0000
vt 0.0000 0.0000
vt 1.0000 1.0000
vt 0.0000 1.0000
vt 1.0000 0.0000
vt 0.0000 0.0000
vt 1.0000 1.0000
vt 0.0000 1.0000
vt 1.0000 0.0000
vt 0.0000 0.0000
vt 1.0000 1.0000
vt 0.0000 1.0000
vt 1.0000 0.0000
vt 0.0000 0.0000
vt 1.0000 1.0000
vt 0.0000 1.0000
vt 1.0000 0.0000
vt 0.0000 0.0000
vt 1.0000 1.0000
vt 0.0000 1.0000
vt 1.0000 0.0000
vt 0.0000 0.0000
vt 1.0000 1.0000
vt 0.0000 1.0000
vt 1.0000 0.0000
vt 0.0000 0.0000
vt 1.0000 1.0000
vt 0.0000 1.0000
vt 1.0000 0.0000
vt 0.0000 0.0000
vt 1.0000 1.0000
vt 0.0000 1.0000
vt 1.0000 0.0000
vt 0.0000 0.0000
vt 1.0000 1.0000
vt 0.0000 1.0000
vt 1.0000 0.0000
vt 0.0000 0.0000
vt 1.0000 1.0000
vt 0.0000 1.0000
vt 1.0000 0.0000
vt 0.0000 0.0000
vt 1.0000 1.0000
vt 0.0000 1.0000
vt 1.0000 0.0000
vt 0.0000 0.0000
vt 1.0000 1.0000
vt 0.0000 1.0000
vt 1.0000 0.0000
vt 0.0000 0.0000
vt 1.0000 1.0000
vt 0.0000 1.0000
vt 1.0000 0.0000
vt 0.0000 0.0000
vt 1.0000 1.0000
vt 0.0000 1.0000
vt 1.0000 0.0000
vt 0.0000 0.0000
vt 1.0000 1.0000
vt 0.0000 1.0000
vt 1.0000 0.0000
vt 0.0000 0.0000
vt 1.0000 1.0000
vt 0.0000 1.0000
vt 1.0000 0.0000
vt 0.0000 0.0000
vt 1.0000 1.0000
vt 0.0000 1.0000
vt 1.0000 0.0000
vt 0.0000 0.0000
vt 1.0000 1.0000
vt 0.0000 1.0000
vt 1.0000 0.0000
vt 0.0000 0.0000
vt 1.0000 1.0000
vt 0.0000 1.0000
vt 1.0000 0.0000
vt 0.0000 0.0000
vt 1.0000 1.0000
vt 0.0000 1.0000
vt 1.0000 0.0000
vt 0.0000 0.0000
vt 1.0000 1.0000
vt 0.0000 1.0000
vt 1.0000 0.0000
vt 0.0000 0.0000
vt 1.0000 1.0000
vt 0.0000 1.0000
vt 1.0000 0.0000
vt 0.0000 0.0000
vt 1.0000 1.0000
vt 0.0000 1.0000
vt 1.0000 0.0000
vt 0.0000 0.0000
vt 1.0000 1.0000
vt 0.0000 1.0000
vt 1.0000 0.0000
vt 0.0000 0.0000
vt 1.0000 1.0000
vt 0.0000 1.0000
vt 1.0000 0.0000
vt 0.0000 0.0000
vt 1.0000 1.0000
vt 0.0000 1.0000
vt 1.0000 0.0000
vt 0.0000 0.0000
vt 1.0000 1.0000
vt 0.0000 1.0000
vt 1.0000 0.0000
vt 0.0000 0.0000
vt 1.0000 1.0000
vt 0.0000 1.0000
vt 1.0000 0.0000
vt 0.0000 0.0000
vt 1.0000 1.0000
vt 0.0000 1.0000
vt 1.0000 0.0000
vt 0.0000 0.0000
vt 1.0000 1.0000
vt 0.0000 1.0000
vt 1.0000 0.0000
vt 0.0000 0.0000
vt 1.0000 1.0000
vt 0.0000 1.0000
vt 1.0000 0.0000
vt 0.0000 0.0000
vt 1.0000 1.0000
vt 0.0000 1.0000
vt 1.0000 0.0000
vt 0.0000 0.0000
vt 1.0000 1.0000
vt 0.0000 1.0000
vt 1.0000 0.0000
vt 0.0000 0.0000
vt 1.0000 1.0000
vt 0.0000 1.0000
vt 1.0000 0.0000
vt 0.0000 0.0000
vt 1.0000 1.0000
vt 0.0000 1.0000
vt 1.0000 0.0000
vt 0.0000 0.0000
vt 1.0000 1.0000
vt 0.0000 1.0000
vt 1.0000 0.0000
vt 0.0000 0.0000
vt 1.0000 1.0000
vt 0.0000 1.0000
vt 1.0000 0.0000
vt 0.0000 0.0000
vn 0.0000 0.0000 -1.0000
vn -0.5210 0.0000 -0.8535
vn -0.9039 0.0000 -0.4278
vn -0.9910 0.0000 0.1335
vn -0.7611 0.0000 0.6485
vn -0.1748 0.0000 0.9846
vn 0.4693 0.0000 0.8830
vn 0.8973 0.0000 0.4413
vn 0.9833 0.0000 -0.1820
vn 0.6801 0.0000 -0.7331
vn 0.3852 0.0000 -0.9228
vn -0.1520 0.0000 -0.9883
vn -0.6693 0.0000 -0.7430
vn -0.9660 0.0000 -0.2585
vn -0.9522 0.0000 0.3053
vn -0.5406 0.0000 0.8413
vn 0.0929 0.0000 0.9957
vn 0.6581 0.0000 0.7529
vn 0.9775 0.0000 0.2108
vn 0.9100 0.0000 -0.4145
vn 0.0093 0.0000 -0.9999
vn -0.5131 0.0000 -0.8583
vn -0.8998 0.0000 -0.4362
vn -0.9922 0.0000 0.1243
vn -0.7671 0.0000 0.6415
vn -0.1839 0.0000 0.9829
vn 0.4611 0.0000 0.8874
vn 0.8932 0.0000 0.4496
vn 0.9849 0.0000 -0.1729
vn 0.6869 0.0000 -0.7267
vn 0.3421 0.0000 -0.9396
vn -0.1975 0.0000 -0.9803
vn -0.7029 0.0000 -0.7112
vn -0.9769 0.0000 -0.2136
vn -0.9371 0.0000 0.3490
vn -0.5011 0.0000 0.8654
vn 0.1388 0.0000 0.9903
vn 0.6922 0.0000 0.7217
vn 0.9862 0.0000 0.1654
vn 0.8899 0.0000 -0.4561
vn -0.0208 0.0000 -0.9998
vn -0.5387 0.0000 -0.8425
vn -0.9126 0.0000 -0.4089
vn -0.9880 0.0000 0.1542
vn -0.7475 0.0000 0.6643
vn -0.1542 0.0000 0.9880
vn 0.4876 0.0000 0.8730
vn 0.9063 0.0000 0.4225
vn 0.9793 0.0000 -0.2025
vn 0.6647 0.0000 -0.7471
vn -0.4782 0.0000 -0.8782
vn -0.8658 0.0000 -0.5004
vn -0.9984 0.0000 0.0566
vn -0.8065 0.0000 0.5913
vn -0.3583 0.0000 0.9336
vn 0.3174 0.0000 0.9483
vn 0.8345 0.0000 0.5510
vn 0.9991 0.0000 -0.0416
vn 0.7765 0.0000 -0.6301
vn 0.2467 0.0000 -0.9691
usemtl VRFirst_Enkei_Far_Plane
s 1
f 45/57/4 46/58/4 47/59/4
f 46/58/4 48/60/4 47/59/4
f 49/61/5 50/62/5 51/63/5
f 50/62/5 52/64/5 51/63/5
f 53/65/6 54/66/6 55/67/6
f 54/66/6 56/68/6 55/67/6
f 57/69/7 58/70/7 59/71/7
f 58/70/7 60/72/7 59/71/7
f 61/73/8 62/74/8 63/75/8
f 62/74/8 64/76/8 63/75/8
f 65/77/9 66/78/9 67/79/9
f 66/78/9 68/80/9 67/79/9
f 69/81/10 70/82/10 71/83/10
f 70/82/10 72/84/10 71/83/10
f 73/85/11 74/86/11 75/87/11
f 74/86/11 76/88/11 75/87/11
f 77/89/12 78/90/12 79/91/12
f 78/90/12 80/92/12 79/91/12
f 81/93/13 82/94/13 83/95/13
f 82/94/13 84/96/13 83/95/13
f 85/97/14 86/98/14 87/99/14
f 86/98/14 88/100/14 87/99/14
f 89/101/15 90/102/15 91/103/15
f 90/102/15 92/104/15 91/103/15
f 93/105/16 94/106/16 95/107/16
f 94/106/16 96/108/16 95/107/16
f 97/109/17 98/110/17 99/111/17
f 98/110/17 100/112/17 99/111/17
f 101/113/18 102/114/18 103/115/18
f 102/114/18 104/116/18 103/115/18
f 105/117/19 106/118/19 107/119/19
f 106/118/19 108/120/19 107/119/19
f 109/121/20 110/122/20 111/123/20
f 110/122/20 112/124/20 111/123/20
f 113/125/21 114/126/21 115/127/21
f 114/126/21 116/128/21 115/127/21
f 117/129/22 118/130/22 119/131/22
f 118/130/22 120/132/22 119/131/22
f 121/133/23 122/134/23 123/135/23
f 122/134/23 124/136/23 123/135/23
f 125/137/24 126/138/24 127/139/24
f 126/138/24 128/140/24 127/139/24
f 129/141/25 130/142/25 131/143/25
f 130/142/25 132/144/25 131/143/25
f 133/145/26 134/146/26 135/147/26
f 134/146/26 136/148/26 135/147/26
f 137/149/27 138/150/27 139/151/27
f 138/150/27 140/152/27 139/151/27
f 141/153/28 142/154/28 143/155/28
f 142/154/28 144/156/28 143/155/28
f 145/157/29 146/158/29 147/159/29
f 146/158/29 148/160/29 147/159/29
f 149/161/30 150/162/30 151/163/30
f 150/162/30 152/164/30 151/163/30
f 153/165/31 154/166/31 155/167/31
f 154/166/31 156/168/31 155/167/31
f 157/169/32 158/170/32 159/171/32
f 158/170/32 160/172/32 159/171/32
f 161/173/33 162/174/33 163/175/33
f 162/174/33 164/176/33 163/175/33
f 165/177/34 166/178/34 167/179/34
f 166/178/34 168/180/34 167/179/34
f 169/181/35 170/182/35 171/183/35
f 170/182/35 172/184/35 171/183/35
f 173/185/36 174/186/36 175/187/36
f 174/186/36 176/188/36 175/187/36
f 177/189/37 178/190/37 179/191/37
f 178/190/37 180/192/37 179/191/37
f 181/193/38 182/194/38 183/195/38
f 182/194/38 184/196/38 183/195/38
f 185/197/39 186/198/39 187/199/39
f 186/198/39 188/200/39 187/199/39
f 189/201/40 190/202/40 191/203/40
f 190/202/40 192/204/40 191/203/40
f 193/205/41 194/206/41 195/207/41
f 194/206/41 196/208/41 195/207/41
f 197/209/42 198/210/42 199/211/42
f 198/210/42 200/212/42 199/211/42
f 201/213/43 202/214/43 203/215/43
f 202/214/43 204/216/43 203/215/43
f 205/217/44 206/218/44 207/219/44
f 206/218/44 208/220/44 207/219/44
f 209/221/45 210/222/45 211/223/45
f 210/222/45 212/224/45 211/223/45
f 213/225/46 214/226/46 215/227/46
f 214/226/46 216/228/46 215/227/46
f 217/229/47 218/230/47 219/231/47
f 218/230/47 220/232/47 219/231/47
f 221/233/48 222/234/48 223/235/48
f 222/234/48 224/236/48 223/235/48
f 225/237/49 226/238/49 227/239/49
f 226/238/49 228/240/49 227/239/49
f 229/241/50 230/242/50 231/243/50
f 230/242/50 232/244/50 231/243/50
f 233/245/51 234/246/51 235/247/51
f 234/246/51 236/248/51 235/247/51
f 237/249/52 238/250/52 239/251/52
f 238/250/52 240/252/52 239/251/52
f 241/253/53 242/254/53 243/255/53
f 242/254/53 244/256/53 243/255/53
f 245/257/54 246/258/54 247/259/54
f 246/258/54 248/260/54 247/259/54
f 249/261/55 250/262/55 251/263/55
f 250/262/55 252/264/55 251/263/55
f 253/265/56 254/266/56 255/267/56
f 254/266/56 256/268/56 255/267/56
f 257/269/57 258/270/57 259/271/57
f 258/270/57 260/272/57 259/271/57
f 261/273/58 262/274/58 263/275/58
f 262/274/58 264/276/58 263/275/58
f 265/277/59 266/278/59 267/279/59
f 266/278/59 268/280/59 267/279/59
f 269/281/60 270/282/60 271/283/60
f 270/282/60 272/284/60 271/283/60
f 273/285/61 274/286/61 275/287/61
f 274/286/61 276/288/61 275/287/61
f 277/289/62 278/290/62 279/291/62
f 278/290/62 280/292/62 279/291/62
f 281/293/63 282/294/63 283/295/63
f 282/294/63 284/296/63 283/295/63
