# Blender v2.78 (sub 0) OBJ File: 'crowd.blend'
# www.blender.org
mtllib crowd.mtl
o Gallery_all__ws_NS2_Gallery_00
v 1.671591 1.262667 -4.387476
v 1.671591 -0.164609 -4.387476
v 1.671602 1.262675 4.380778
v 1.671602 -0.164602 4.380778
v 0.554553 0.896021 -4.387475
v 0.554553 -0.531255 -4.387475
v 0.554556 0.896021 4.380766
v 0.554556 -0.531255 4.380766
v -0.562473 0.529368 -4.387497
v -0.562473 -0.897909 -4.387497
v -0.562482 0.529368 4.380768
v -0.562482 -0.897909 4.380768
v -1.679500 0.162745 4.380758
v -1.679496 0.162745 -4.387469
v -1.679500 -1.264532 4.380758
v -1.679496 -1.264532 -4.387469
vt 0.0000 -11.5000
vt 0.0000 -12.0000
vt 1.6000 -11.5000
vt 1.6000 -12.0000
vt 2.2000 -11.5000
vt 2.2000 -12.0000
vt 3.8000 -11.5000
vt 3.8000 -12.0000
vt 0.6080 -12.0000
vt 0.6080 -12.5000
vt 2.2000 -12.0000
vt 2.2000 -12.5000
vt 3.2000 -11.5000
vt 1.6000 -11.5000
vt 3.2000 -12.0000
vt 1.6000 -12.0000
vn -1.0000 0.0000 0.0000
usemtl ws_NS2_Gallery_00
s off
f 1/1/1 2/2/1 3/3/1
f 2/2/1 4/4/1 3/3/1
f 5/5/1 6/6/1 7/7/1
f 6/6/1 8/8/1 7/7/1
f 9/9/1 10/10/1 11/11/1
f 10/10/1 12/12/1 11/11/1
f 13/13/1 14/14/1 15/15/1
f 14/14/1 16/16/1 15/15/1
