# Blender v2.79 (sub 0) OBJ File: ''
# www.blender.org
# MTLLIB REMOVED FOR MARIO KART ASSET MANAGER
o polygon0_ID37
v 0.000000 4.634272 3.494730
v 1.005470 4.484860 3.343950
v 0.000000 4.544626 4.199020
v 1.276370 4.276852 4.003520
v 0.998828 3.433884 4.064450
v 2.711910 3.499509 3.086130
v 2.529100 2.650876 3.080860
v 3.278130 2.208102 1.540430
v 3.320310 2.194233 -1.468950
v 3.454300 2.053413 -0.000000
v 3.687310 2.977049 -1.478520
v 3.877730 2.796775 -0.000000
v 3.049800 3.373142 -1.198440
v 3.279300 3.192478 -0.000000
v 2.603130 3.734471 -2.396880
v 2.992190 3.363572 -2.957030
v 2.600980 2.637205 -2.937700
v 1.115040 3.452049 -3.984570
v 0.000000 3.656932 -4.184960
v 0.000000 3.708297 4.284960
v -0.998828 3.433884 4.064450
v -1.276370 4.276852 4.003520
v -1.005470 4.484860 3.343950
v -2.711910 3.499509 3.086130
v -2.529100 2.650876 3.080860
v -3.278130 2.208102 1.540430
v -3.320310 2.194233 -1.468950
v -3.454300 2.053413 -0.000000
v -3.687310 2.977049 -1.478520
v -3.877730 2.796775 -0.000000
v -3.049800 3.373142 -1.198440
v -3.279300 3.192478 -0.000000
v -1.650200 3.180368 3.393160
v -1.219530 2.045802 3.408010
v -2.027540 3.212399 2.806060
v -1.335350 1.921192 2.858980
v -2.071290 1.236622 1.799220
v 0.000000 0.433102 1.863670
v -2.206450 0.887013 0.001953
v 0.000000 -0.017287 0.001953
v 0.000000 0.367093 -2.109771
v 2.206450 0.887013 0.001953
v 1.957420 1.093453 -1.942380
v 3.027540 2.653806 -1.500390
v 1.149020 3.686424 -3.829880
v -2.603130 3.734471 -2.396880
v -2.447850 6.016892 -0.000781
v -1.455660 5.976463 -2.464449
v -1.176370 6.952243 0.002344
v 0.000000 7.149703 -1.231639
v 0.000000 7.162592 1.173441
v 1.176370 6.952243 0.002344
v 1.317580 5.932322 2.532031
v 2.447850 6.016892 -0.000781
v 2.512890 3.716110 2.528520
v 3.003120 3.363962 1.264260
v 1.319730 4.327635 -4.067580
v 0.000000 4.415916 -4.221870
v -1.115040 3.452049 -3.984570
v -1.319730 4.327635 -4.067580
v -2.600980 2.637205 -2.937700
v -2.992190 3.363572 -2.957030
v 0.000000 1.575482 3.533200
v 0.000000 1.356932 2.858979
v 1.335350 1.921192 2.858980
v 2.071290 1.236622 1.799220
v 2.027540 3.212399 2.806060
v 3.000190 2.686813 1.210740
v 0.944531 1.874123 -3.124020
v 0.000000 1.623923 -3.317190
v -1.957420 1.093453 -1.942380
v -3.027540 2.653806 -1.500390
v -3.000190 2.686813 1.210740
v 1.455660 5.976463 -2.464449
v 0.000000 5.976463 -2.764259
v 0.000000 4.639163 -3.507230
v -1.317580 5.932322 2.532031
v 0.000000 5.932322 2.831841
v -2.512890 3.716110 2.528520
v -3.003120 3.363962 1.264260
v -3.530270 3.023337 1.543160
v 1.082030 4.492088 -3.383790
v -1.082030 4.492088 -3.383790
v 3.530270 3.023337 1.543160
v 1.650200 3.180368 3.393160
v 1.219530 2.045802 3.408010
v 0.450000 6.213372 2.225780
v 0.900000 5.616302 2.726760
v 0.000000 6.773342 4.105660
v 0.450000 5.019232 3.227730
v -0.450000 5.019232 3.227730
v -0.900000 5.616302 2.726760
v -0.450000 6.213372 2.225780
v 0.450000 5.050873 -3.314260
v 0.900000 5.647943 -2.813280
v 0.000000 6.804983 -4.192189
v 0.450000 6.245013 -2.312310
v -0.450000 6.245013 -2.312310
v 0.450000 7.027053 -0.779491
v 0.900000 7.027052 0.000001
v 0.000000 8.827053 0.000001
v 0.450000 7.027052 0.779493
v -0.450000 7.027052 0.779493
v 2.516800 5.532913 -0.476758
v 2.070120 5.967283 -1.126170
v 3.959380 5.941893 -1.818950
v 1.981250 5.592483 -1.939650
v 2.338870 4.782913 -2.103520
v 1.981250 5.592482 1.939650
v 2.070120 5.967282 1.126170
v 3.959380 5.941893 1.818950
v 2.516800 5.532912 0.476758
v 2.874410 4.723332 0.640625
v -2.338870 4.782912 2.103520
v -2.785550 4.348533 1.454100
v -3.959380 5.941893 1.818950
v -2.874410 4.723332 0.640625
v -2.516800 5.532912 0.476758
v -2.070120 5.967282 1.126170
v -1.981250 5.592482 1.939650
v 0.000000 3.787790 3.536330
v 2.785550 4.348533 1.454100
v 2.338870 4.782912 2.103520
v -0.900000 5.647943 -2.813280
v -0.450000 5.050873 -3.314260
v -0.944531 1.874123 -3.124020
v -1.149020 3.686424 -3.829880
v -0.900000 7.027052 0.000001
v -0.450000 7.027053 -0.779491
v 2.785550 4.348533 -1.454100
v 2.874410 4.723333 -0.640625
v -2.874410 4.723333 -0.640625
v -3.959380 5.941893 -1.818950
v -2.516800 5.532913 -0.476758
v -2.070120 5.967283 -1.126170
v -1.981250 5.592483 -1.939650
v -2.338870 4.782913 -2.103520
v -2.785550 4.348533 -1.454100
vt 0.036194 0.969971
vt 0.036194 0.969971
vt 0.036194 0.969971
vt 0.036194 0.969971
vt 0.036194 0.969971
vt 0.036194 0.969971
vt 0.036194 0.969971
vt 0.036194 0.969971
vt 0.036194 0.969971
vt 0.036194 0.969971
vt 0.036194 0.969971
vt 0.036194 0.969971
vt 0.036194 0.969971
vt 0.036194 0.969971
vt 0.036194 0.969971
vt 0.036194 0.969971
vt 0.036194 0.969971
vt 0.036194 0.969971
vt 0.036194 0.969971
vt 0.036194 0.969971
vt 0.036194 0.969971
vt 0.036194 0.969971
vt 0.036194 0.969971
vt 0.036194 0.969971
vt 0.036194 0.969971
vt 0.036194 0.969971
vt 0.036194 0.969971
vt 0.036194 0.969971
vt 0.036194 0.969971
vt 0.036194 0.969971
vt 0.036194 0.969971
vt 0.036194 0.969971
vt 1.165830 0.481201
vt 1.026000 0.354309
vt 1.026310 0.461670
vt 1.121460 0.342346
vt 1.267090 0.251709
vt 1.255920 0.018677
vt 1.505620 0.215942
vt 1.502140 0.007690
vt 1.754090 0.020630
vt 1.505620 0.215942
vt 1.750310 0.249023
vt 1.671510 0.420716
vt 1.972840 0.479858
vt 0.717407 0.993286
vt 0.619385 1.328130
vt 0.569824 1.160280
vt 0.832458 1.301880
vt 0.877747 0.993103
vt 1.001280 1.120060
vt 1.001280 0.872620
vt 1.124820 0.993103
vt 1.154110 0.680115
vt 1.285160 0.993286
vt 1.369930 0.646729
vt 1.426150 0.819580
vt 0.036194 0.969971
vt 0.036194 0.969971
vt 0.036194 0.969971
vt 0.036194 0.969971
vt 0.036194 0.969971
vt 0.036194 0.969971
vt 1.024780 0.332031
vt 1.133790 0.055176
vt 1.121460 0.342346
vt 1.267090 0.251709
vt 1.165830 0.481201
vt 1.368710 0.412292
vt 1.920350 0.310913
vt 1.933290 0.078247
vt 1.750310 0.249023
vt 1.671510 0.420716
vt 1.368710 0.412292
vt 1.170100 1.301880
vt 1.001280 1.301880
vt 1.001280 1.485960
vt 0.848511 0.680115
vt 1.001280 0.680115
vt 1.001280 0.509949
vt 0.864441 0.509949
vt 0.632629 0.646729
vt 0.576416 0.819580
vt 0.036194 0.969971
vt 0.036194 0.969971
vt 1.383180 1.328130
vt 1.432800 1.160280
vt 1.148560 1.485960
vt 0.036194 0.969971
vt 0.036194 0.969971
vt 0.036194 0.969971
vt 0.036194 0.969971
vt 0.036194 0.969971
vt 1.026000 0.354309
vt 1.026310 0.461670
vt 0.023987 0.982056
vt 0.031738 0.935547
vt 0.035583 0.935547
vt 0.027832 0.935547
vt 0.023987 0.935547
vt 0.020142 0.935547
vt 0.016235 0.935547
vt 0.012390 0.935547
vt 0.023987 0.982056
vt 0.031738 0.935547
vt 0.035583 0.935547
vt 0.027832 0.935547
vt 0.023987 0.935547
vt 0.023987 0.982056
vt 0.031738 0.935547
vt 0.035583 0.935547
vt 0.027832 0.935547
vt 0.023987 0.935547
vt 0.023987 0.982056
vt 0.020142 0.935547
vt 0.023987 0.935547
vt 0.016235 0.935547
vt 0.012390 0.935547
vt 0.023987 0.982056
vt 0.020142 0.935547
vt 0.023987 0.935547
vt 0.016235 0.935547
vt 0.012390 0.935547
vt 0.023987 0.982056
vt 0.031738 0.935547
vt 0.035583 0.935547
vt 0.027832 0.935547
vt 0.023987 0.935547
vt 0.020142 0.935547
vt 0.016235 0.935547
vt 0.012390 0.935547
vt 0.250305 0.980469
vt 0.416626 0.645386
vt 0.478821 0.932983
vt 0.250305 0.544373
vt 0.084045 0.645386
vt 0.031738 0.935547
vt 0.035583 0.935547
vt 0.027832 0.935547
vt 0.036194 0.969971
vt 0.036194 0.969971
vt 0.020142 0.935547
vt 0.016235 0.935547
vt 0.012390 0.935547
vt 1.920350 0.310913
vt 1.972840 0.479858
vt 0.020142 0.935547
vt 0.016235 0.935547
vt 0.012390 0.935547
vt 0.031738 0.935547
vt 0.035583 0.935547
vt 0.027832 0.935547
vt 0.520203 0.992432
vt 1.482360 0.992432
vt 0.016235 0.935547
vt 0.023987 0.982056
vt 0.012390 0.935547
vt 0.020142 0.935547
vt 0.023987 0.935547
vt 0.027832 0.935547
vt 0.854004 1.485960
vt 1.138120 0.509949
vt 0.031738 0.935547
vt 0.035583 0.935547
vt 0.020019 0.993774
vt 0.248901 0.517273
vt 0.060730 0.556641
vt 0.477783 0.993774
vt 0.036194 0.969971
vt 0.437073 0.556641
vt 0.021851 0.932983
vn 0.0000 0.6870 0.7266
vn 0.4093 0.7394 0.5345
vn 0.0000 0.8251 0.5649
vn 0.4602 0.5532 0.6943
vn 0.0469 -0.6698 0.7411
vn 0.7628 0.3622 0.5356
vn 0.2634 -0.7882 0.5561
vn 0.3652 -0.8925 0.2647
vn 0.3052 -0.9219 -0.2386
vn 0.2040 -0.9786 0.0253
vn 0.9477 0.2418 -0.2082
vn 0.9847 0.1688 0.0419
vn 0.7752 0.6270 -0.0765
vn 0.7722 0.6351 0.0152
vn 0.7136 0.6516 -0.2572
vn 0.7825 0.2473 -0.5713
vn 0.1554 -0.8318 -0.5329
vn 0.0786 -0.7074 -0.7024
vn -0.0155 -0.6485 -0.7610
vn 0.0000 -0.5419 0.8404
vn -0.0486 -0.6698 0.7409
vn -0.4611 0.5524 0.6944
vn -0.4093 0.7394 0.5345
vn -0.7576 0.3601 0.5443
vn -0.2630 -0.7876 0.5572
vn -0.3652 -0.8925 0.2647
vn -0.3063 -0.9196 -0.2459
vn -0.2040 -0.9786 0.0253
vn -0.9407 0.2521 -0.2267
vn -0.9847 0.1688 0.0419
vn -0.7772 0.6217 -0.0967
vn -0.7722 0.6351 0.0152
vn -0.7777 -0.3206 0.5407
vn -0.4929 -0.4884 0.7200
vn -0.5328 -0.1914 0.8243
vn -0.5753 -0.6275 0.5246
vn -0.6211 -0.6464 0.4431
vn 0.0000 -0.8923 0.4514
vn -0.6632 -0.7482 0.0203
vn 0.0000 -0.9996 0.0273
vn 0.0000 -0.8912 -0.4535
vn 0.6632 -0.7482 0.0203
vn 0.5976 -0.6637 -0.4497
vn 0.8422 -0.4116 -0.3481
vn 0.3283 -0.3075 -0.8931
vn -0.8099 0.5864 0.0150
vn -0.7338 0.6321 -0.2489
vn -0.5093 0.6223 -0.5944
vn -0.4500 0.8929 0.0116
vn 0.0000 0.9488 -0.3158
vn 0.0000 0.9499 0.3125
vn 0.4500 0.8929 0.0116
vn 0.4920 0.6169 0.6142
vn 0.8099 0.5864 0.0150
vn 0.7215 0.6453 0.2508
vn 0.7755 0.6199 0.1195
vn 0.4261 0.5498 -0.7184
vn -0.0097 0.5769 -0.8167
vn -0.0702 -0.7006 -0.7100
vn -0.4186 0.5470 -0.7250
vn -0.1631 -0.8327 -0.5291
vn -0.7942 0.2463 -0.5555
vn 0.0000 -0.6486 0.7611
vn 0.0000 -0.8472 0.5312
vn 0.5753 -0.6275 0.5246
vn 0.6211 -0.6464 0.4431
vn 0.7777 -0.3206 0.5407
vn 0.8757 -0.3903 0.2843
vn 0.4087 -0.4719 -0.7812
vn 0.0000 -0.5355 -0.8445
vn -0.5976 -0.6637 -0.4497
vn -0.8422 -0.4116 -0.3481
vn -0.8757 -0.3903 0.2843
vn 0.5093 0.6223 -0.5944
vn 0.0000 0.6409 -0.7676
vn 0.0000 0.7781 -0.6281
vn -0.4920 0.6169 0.6142
vn 0.0000 0.6305 0.7762
vn -0.7007 0.6659 0.2561
vn -0.7750 0.6228 0.1071
vn -0.9227 0.2995 0.2425
vn 0.3866 0.7610 -0.5210
vn -0.3866 0.7610 -0.5210
vn 0.9183 0.3077 0.2491
vn 0.4929 -0.4884 0.7200
vn 0.5328 -0.1914 0.8243
vn 0.0000 0.6428 0.7660
vn 0.8944 0.2874 0.3426
vn 0.4472 0.8808 -0.1553
vn 0.4472 -0.3059 0.8405
vn -0.4472 -0.3059 0.8405
vn -0.8944 0.2874 0.3426
vn -0.4472 0.8808 -0.1553
vn 0.0000 0.6428 -0.7660
vn 0.8944 0.2874 -0.3426
vn 0.4472 -0.3059 -0.8405
vn 0.4472 0.8808 0.1553
vn -0.4472 0.8808 0.1553
vn 0.0000 1.0000 0.0000
vn 0.8944 0.4472 0.0000
vn 0.4472 0.4472 -0.7746
vn 0.4472 0.4472 0.7746
vn -0.4472 0.4472 0.7746
vn 0.8509 0.4355 -0.2938
vn 0.0250 0.9992 0.0316
vn 0.4689 0.5674 0.6769
vn -0.0633 0.6266 -0.7768
vn 0.2922 -0.1779 -0.9396
vn 0.8509 0.4355 0.2938
vn 0.0250 0.9992 -0.0316
vn -0.0633 0.6266 0.7768
vn 0.4689 0.5674 -0.6769
vn 0.8244 -0.2370 -0.5139
vn -0.8509 0.4355 0.2938
vn -0.7360 -0.6096 0.2943
vn -0.2922 -0.1779 0.9396
vn -0.8244 -0.2370 -0.5139
vn -0.4689 0.5674 -0.6769
vn -0.0250 0.9992 -0.0316
vn 0.0633 0.6266 0.7768
vn 0.0000 -0.0094 0.9999
vn 0.7360 -0.6096 0.2943
vn 0.2922 -0.1779 0.9396
vn -0.8944 0.2874 -0.3426
vn -0.4472 -0.3059 -0.8405
vn -0.4087 -0.4719 -0.7812
vn -0.3283 -0.3075 -0.8931
vn -0.8944 0.4472 0.0000
vn -0.4472 0.4472 -0.7746
vn 0.7360 -0.6096 -0.2943
vn 0.8244 -0.2370 0.5139
vn -0.4689 0.5674 0.6769
vn -0.8509 0.4355 -0.2938
vn -0.8244 -0.2370 0.5139
vn -0.0250 0.9992 0.0316
vn 0.0633 0.6266 -0.7768
vn -0.2922 -0.1779 -0.9396
vn -0.7360 -0.6096 -0.2943
usemtl shell_green_tx.001
s 1
f 3/1/1 2/2/2 1/3/3
f 4/4/4 2/2/2 3/1/1
f 5/5/5 4/4/4 3/1/1
f 6/6/6 4/4/4 5/5/5
f 7/7/7 6/6/6 5/5/5
f 8/8/8 6/6/6 7/7/7
f 9/9/9 8/8/8 7/7/7
f 10/10/10 8/8/8 9/9/9
f 11/11/11 10/10/10 9/9/9
f 12/12/12 10/10/10 11/11/11
f 13/13/13 12/12/12 11/11/11
f 14/14/14 12/12/12 13/13/13
f 11/11/11 15/15/15 13/13/13
f 16/16/16 15/15/15 11/11/11
f 9/9/9 16/16/16 11/11/11
f 17/17/17 16/16/16 9/9/9
f 7/7/7 17/17/17 9/9/9
f 18/18/18 17/17/17 7/7/7
f 5/5/5 18/18/18 7/7/7
f 19/19/19 18/18/18 5/5/5
f 20/20/20 19/19/19 5/5/5
f 21/21/21 19/19/19 20/20/20
f 3/1/1 21/21/21 20/20/20
f 22/22/22 21/21/21 3/1/1
f 23/23/23 3/1/1 1/3/3
f 22/22/22 3/1/1 23/23/23
f 24/24/24 22/22/22 23/23/23
f 25/25/25 22/22/22 24/24/24
f 26/26/26 25/25/25 24/24/24
f 27/27/27 25/25/25 26/26/26
f 28/28/28 27/27/27 26/26/26
f 29/29/29 27/27/27 28/28/28
f 30/30/30 29/29/29 28/28/28
f 31/31/31 29/29/29 30/30/30
f 32/32/32 31/31/31 30/30/30
f 35/33/33 34/34/34 33/35/35
f 36/36/36 34/34/34 35/33/33
f 37/37/37 36/36/36 35/33/33
f 38/38/38 36/36/36 37/37/37
f 39/39/39 38/38/38 37/37/37
f 40/40/40 38/38/38 39/39/39
f 41/41/41 40/40/40 39/39/39
f 42/42/42 40/40/40 41/41/41
f 43/43/43 42/42/42 41/41/41
f 44/44/44 42/42/42 43/43/43
f 45/45/45 44/44/44 43/43/43
f 47/46/46 46/47/47 31/48/31
f 48/49/48 46/47/47 47/46/46
f 49/50/49 48/49/48 47/46/46
f 50/51/50 48/49/48 49/50/49
f 51/52/51 50/51/50 49/50/49
f 52/53/52 50/51/50 51/52/51
f 53/54/53 52/53/52 51/52/51
f 54/55/54 52/53/52 53/54/53
f 55/56/55 54/55/54 53/54/53
f 56/57/56 54/55/54 55/56/55
f 19/19/19 57/58/57 18/18/18
f 58/59/58 57/58/57 19/19/19
f 59/60/59 58/59/58 19/19/19
f 60/61/60 58/59/58 59/60/59
f 61/62/61 60/61/60 59/60/59
f 62/63/62 60/61/60 61/62/61
f 29/29/29 62/63/62 61/62/61
f 31/31/31 62/63/62 29/29/29
f 36/36/36 63/64/63 34/34/34
f 64/65/64 63/64/63 36/36/36
f 38/38/38 64/65/64 36/36/36
f 65/66/65 64/65/64 38/38/38
f 66/67/66 65/66/65 38/38/38
f 67/68/67 65/66/65 66/67/66
f 68/69/68 67/68/67 66/67/66
f 43/43/43 69/70/69 45/45/45
f 70/71/70 69/70/69 43/43/43
f 41/41/41 70/71/70 43/43/43
f 71/72/71 70/71/70 41/41/41
f 39/39/39 71/72/71 41/41/41
f 72/73/72 71/72/71 39/39/39
f 73/74/73 72/73/72 39/39/39
f 61/62/61 27/27/27 29/29/29
f 25/25/25 27/27/27 61/62/61
f 59/60/59 25/25/25 61/62/61
f 21/21/21 25/25/25 59/60/59
f 19/19/19 21/21/21 59/60/59
f 74/75/74 52/53/52 54/55/54
f 50/51/50 52/53/52 74/75/74
f 75/76/75 50/51/50 74/75/74
f 48/49/48 50/51/50 75/76/75
f 76/77/76 48/49/48 75/76/75
f 77/78/77 49/50/49 47/46/46
f 51/52/51 49/50/49 77/78/77
f 78/79/78 51/52/51 77/78/77
f 53/54/53 51/52/51 78/79/78
f 1/80/3 53/54/53 78/79/78
f 77/78/77 23/81/23 1/80/3
f 79/82/79 23/81/23 77/78/77
f 47/46/46 79/82/79 77/78/77
f 80/83/80 79/82/79 47/46/46
f 30/30/30 80/84/80 32/32/32
f 81/85/81 80/84/80 30/30/30
f 28/28/28 81/85/81 30/30/30
f 26/26/26 81/85/81 28/28/28
f 15/86/15 54/55/54 13/87/13
f 74/75/74 54/55/54 15/86/15
f 82/88/82 74/75/74 15/86/15
f 76/77/76 74/75/74 82/88/82
f 16/16/16 82/89/82 15/15/15
f 57/58/57 82/89/82 16/16/16
f 17/17/17 57/58/57 16/16/16
f 18/18/18 57/58/57 17/17/17
f 83/90/83 60/61/60 62/63/62
f 58/59/58 60/61/60 83/90/83
f 76/91/76 58/59/58 83/90/83
f 82/89/82 58/59/58 76/91/76
f 56/92/56 12/12/12 14/14/14
f 84/93/84 12/12/12 56/92/56
f 6/6/6 84/93/84 56/92/56
f 8/8/8 84/93/84 6/6/6
f 86/94/85 67/68/67 85/95/86
f 65/66/65 67/68/67 86/94/85
f 63/64/63 65/66/65 86/94/85
f 64/65/64 65/66/65 63/64/63
f 89/96/87 88/97/88 87/98/89
f 90/99/90 88/97/88 89/96/87
f 91/100/91 90/99/90 89/96/87
f 89/96/87 92/101/92 91/100/91
f 93/102/93 92/101/92 89/96/87
f 87/103/89 93/102/93 89/96/87
f 96/104/94 95/105/95 94/106/96
f 97/107/97 95/105/95 96/104/94
f 98/108/98 97/107/97 96/104/94
f 101/109/99 100/110/100 99/111/101
f 102/112/102 100/110/100 101/109/99
f 103/113/103 102/112/102 101/109/99
f 106/114/104 105/115/105 104/116/106
f 107/117/107 105/115/105 106/114/104
f 108/118/108 107/117/107 106/114/104
f 111/119/109 110/120/110 109/121/111
f 112/122/112 110/120/110 111/119/109
f 113/123/113 112/122/112 111/119/109
f 116/124/114 115/125/115 114/126/116
f 117/127/117 115/125/115 116/124/114
f 118/128/118 117/127/117 116/124/114
f 116/124/114 119/129/119 118/128/118
f 120/130/120 119/129/119 116/124/114
f 114/131/116 120/130/120 116/124/114
f 121/132/121 86/133/85 85/134/86
f 63/135/63 86/133/85 121/132/121
f 34/136/34 63/135/63 121/132/121
f 111/119/109 122/137/122 113/138/113
f 123/139/123 122/137/122 111/119/109
f 109/121/111 123/139/123 111/119/109
f 79/140/79 24/24/24 23/23/23
f 81/85/81 24/24/24 79/140/79
f 80/84/80 81/85/81 79/140/79
f 6/6/6 2/2/2 4/4/4
f 55/141/55 2/2/2 6/6/6
f 56/92/56 55/141/55 6/6/6
f 96/104/94 124/142/124 98/108/98
f 125/143/125 124/142/124 96/104/94
f 94/144/96 125/143/125 96/104/94
f 71/72/71 126/145/126 70/71/70
f 127/146/127 126/145/126 71/72/71
f 72/73/72 127/146/127 71/72/71
f 101/109/99 128/147/128 103/113/103
f 129/148/129 128/147/128 101/109/99
f 99/149/101 129/148/129 101/109/99
f 106/114/104 130/150/130 108/151/108
f 131/152/131 130/150/130 106/114/104
f 104/116/106 131/152/131 106/114/104
f 47/46/46 32/153/32 80/83/80
f 31/48/31 32/153/32 47/46/46
f 54/55/54 14/154/14 13/87/13
f 56/57/56 14/154/14 54/55/54
f 134/155/132 133/156/133 132/157/134
f 135/158/135 133/156/133 134/155/132
f 136/159/136 133/156/133 135/158/135
f 137/160/137 133/156/133 136/159/136
f 83/161/83 48/49/48 76/77/76
f 46/47/47 48/49/48 83/161/83
f 2/162/2 53/54/53 1/80/3
f 55/56/55 53/54/53 2/162/2
f 138/163/138 133/156/133 137/160/137
f 132/164/134 133/156/133 138/163/138
f 38/38/38 42/42/42 66/67/66
f 40/40/40 42/42/42 38/38/38
f 68/69/68 42/42/42 44/44/44
f 66/67/66 42/42/42 68/69/68
f 127/165/127 70/166/70 126/167/126
f 45/168/45 70/166/70 127/165/127
f 46/169/47 62/63/62 31/31/31
f 83/90/83 62/63/62 46/169/47
f 73/74/73 37/37/37 35/33/33
f 39/39/39 37/37/37 73/74/73
f 10/10/10 84/93/84 8/8/8
f 12/12/12 84/93/84 10/10/10
f 76/77/76 75/76/75 74/75/74
f 77/78/77 1/80/3 78/79/78
f 70/166/70 45/168/45 69/170/69
f 121/132/121 33/171/35 34/136/34
f 81/85/81 26/26/26 24/24/24
f 20/20/20 5/5/5 3/1/1
f 57/58/57 58/59/58 82/89/82
f 21/21/21 22/22/22 25/25/25
o polygon1_ID22
v -3.669420 11.187203 -3.515888
v -3.652070 11.050114 -4.044208
v -3.452900 7.509403 0.609369
v -2.466310 5.751163 -0.917722
v -3.442130 5.703372 1.528880
v -3.444890 4.087351 1.389580
v 3.669410 11.187203 -3.515889
v 3.452900 7.509403 0.609369
v 3.652070 11.050114 -4.044199
v 2.466310 5.751163 -0.917721
v 3.592090 10.253273 -4.301990
v 3.555900 9.502953 -4.041090
v -3.592090 10.253273 -4.301989
v -3.555900 9.502953 -4.041089
v -3.531780 9.621674 -4.628348
v -3.515699 9.050064 -4.844289
v -3.504980 8.152503 -4.369639
v -3.501400 8.063414 -4.832949
v -3.495450 7.191273 -4.697639
v -3.493460 6.669073 -4.132849
v -3.490150 6.607233 -4.511249
v -3.483540 5.775073 -4.342849
v -3.488430 5.042353 -3.466689
v -3.493320 4.673643 -3.511309
v -3.498220 4.077014 -3.114670
v -3.457260 3.270486 -1.647350
v -3.449630 3.274753 0.093870
v -4.176310 5.816113 -1.042970
v 3.493320 4.673643 -3.511310
v 3.498220 4.077014 -3.114670
v 4.176310 5.816113 -1.042970
v 3.457260 3.270486 -1.647350
v 3.449630 3.274753 0.093870
v 3.444890 4.087351 1.389580
v 3.442130 5.703372 1.528880
v 3.531780 9.621674 -4.628349
v 3.515700 9.050064 -4.844289
v 3.504980 8.152503 -4.369639
v 3.501400 8.063414 -4.832949
v 3.495450 7.191273 -4.697640
v 3.493460 6.669073 -4.132850
v 3.490150 6.607233 -4.511250
v 3.483540 5.775084 -4.342850
v 3.488430 5.042353 -3.466690
vt 0.106018 0.488770
vt 0.849731 0.903748
vt 0.765320 0.919861
vt 0.350098 0.234802
vt -0.040955 0.277100
vt -0.018677 0.087708
vt 0.849731 0.903748
vt 0.106018 0.488770
vt 0.765320 0.919861
vt 0.350098 0.234802
vt 0.890930 0.810364
vt 0.863037 0.726135
vt 0.890930 0.810364
vt 0.863037 0.726135
vt 0.943115 0.736328
vt 0.977600 0.669373
vt 0.901794 0.564148
vt 0.975830 0.553711
vt 0.947693 0.462830
vt 0.866089 0.396790
vt 0.924377 0.383057
vt 0.895081 0.294373
vt 0.755066 0.208496
vt 0.764587 0.156433
vt 0.701172 0.086487
vt 0.466675 -0.008057
vt 0.188415 -0.007568
vt 0.377380 0.308350
vt 0.766846 0.175415
vt 0.704224 0.093079
vt 0.759766 0.218323
vt 0.898010 0.303589
vt 0.924622 0.391785
vt 0.864868 0.398987
vt 0.954041 0.468384
vt 0.975342 0.569885
vt 0.902283 0.580261
vt 0.977173 0.684692
vt 0.943054 0.751221
vt 0.850403 0.727600
vt 0.891602 0.824707
vt 0.377380 0.308350
vt 0.704224 0.093079
vt 0.766846 0.175415
vt 0.472717 -0.000793
vt 0.197998 -0.000305
vt -0.006470 0.107178
vt -0.028442 0.295227
vt 0.116638 0.505432
vt 0.767517 0.919067
vt 0.850891 0.917419
vt 0.891602 0.824707
vt 0.943115 0.736328
vt 0.977600 0.669373
vt 0.901794 0.564148
vt 0.975830 0.553711
vt 0.947693 0.462830
vt 0.866089 0.396790
vt 0.924377 0.383057
vt 0.895081 0.294373
vt 0.755066 0.208496
vt 0.764587 0.156433
vt 0.701172 0.086487
vt 0.466675 -0.008057
vt 0.188415 -0.007568
vt -0.018677 0.087708
vt -0.040955 0.277100
vt 0.472717 -0.000793
vt 0.197998 -0.000305
vt -0.006470 0.107178
vt -0.028442 0.295227
vt 0.116638 0.505432
vt 0.767517 0.919067
vt 0.850891 0.917419
vt 0.759766 0.218323
vt 0.898010 0.303589
vt 0.924622 0.391785
vt 0.864868 0.398987
vt 0.954041 0.468384
vt 0.975342 0.569885
vt 0.902283 0.580261
vt 0.977173 0.684692
vt 0.943054 0.751221
vt 0.850403 0.727600
vn -0.0331 0.6375 0.7697
vn -0.0318 0.8299 -0.5570
vn -0.0083 0.9954 0.0956
vn 0.9981 -0.0276 0.0548
vn -0.0427 0.1620 0.9858
vn -0.0363 -0.5330 0.8453
vn 0.0318 0.8299 -0.5570
vn 0.0331 0.6375 0.7697
vn 0.0083 0.9954 0.0956
vn -0.9981 -0.0276 0.0548
vn -0.0073 0.1379 -0.9904
vn 0.0870 0.2051 -0.9749
vn 0.0073 0.1379 -0.9904
vn -0.0870 0.2051 -0.9749
vn -0.0302 0.8408 -0.5404
vn -0.0183 0.0822 -0.9964
vn -0.1074 0.1131 -0.9877
vn -0.0266 0.5580 -0.8294
vn -0.0367 -0.3460 -0.9375
vn -0.2186 0.3382 -0.9153
vn -0.0316 0.4813 -0.8759
vn -0.0344 -0.4369 -0.8989
vn -0.0774 -0.4070 -0.9101
vn -0.0439 -0.2583 -0.9651
vn -0.0573 -0.7229 -0.6886
vn -0.0378 -0.9678 -0.2489
vn -0.0417 -0.9552 0.2929
vn -0.9981 -0.0374 0.0486
vn 0.9981 -0.0374 0.0486
vn 0.0573 -0.7229 -0.6886
vn 0.0439 -0.2583 -0.9651
vn 0.0378 -0.9678 -0.2489
vn 0.0417 -0.9552 0.2929
vn 0.0363 -0.5330 0.8453
vn 0.0427 0.1620 0.9858
vn 0.0302 0.8408 -0.5404
vn 0.0183 0.0822 -0.9964
vn 0.1074 0.1131 -0.9877
vn 0.0265 0.5580 -0.8294
vn 0.0367 -0.3460 -0.9375
vn 0.2186 0.3382 -0.9153
vn 0.0316 0.4813 -0.8759
vn 0.0344 -0.4368 -0.8989
vn 0.0774 -0.4070 -0.9101
usemtl wing.001
s 1
f 141/172/139 140/173/140 139/174/141
f 142/175/142 140/173/140 141/172/139
f 143/176/143 142/175/142 141/172/139
f 144/177/144 142/175/142 143/176/143
f 147/178/145 146/179/146 145/180/147
f 148/181/148 146/179/146 147/178/145
f 149/182/149 148/181/148 147/178/145
f 150/183/150 148/181/148 149/182/149
f 142/175/142 151/184/151 140/173/140
f 152/185/152 151/184/151 142/175/142
f 153/186/153 152/185/152 142/175/142
f 142/175/142 154/187/154 153/186/153
f 155/188/155 154/187/154 142/175/142
f 156/189/156 155/188/155 142/175/142
f 142/175/142 157/190/157 156/189/156
f 158/191/158 157/190/157 142/175/142
f 159/192/159 158/191/158 142/175/142
f 142/175/142 160/193/160 159/192/159
f 161/194/161 160/193/160 142/175/142
f 162/195/162 161/194/161 142/175/142
f 142/175/142 163/196/163 162/195/162
f 164/197/164 163/196/163 142/175/142
f 165/198/165 164/197/164 142/175/142
f 166/199/166 162/200/162 163/201/163
f 161/202/161 162/200/162 166/199/166
f 160/203/160 161/202/161 166/199/166
f 166/199/166 159/204/159 160/203/160
f 158/205/158 159/204/159 166/199/166
f 157/206/157 158/205/158 166/199/166
f 166/199/166 156/207/156 157/206/157
f 155/208/155 156/207/156 166/199/166
f 154/209/154 155/208/155 166/199/166
f 166/199/166 153/210/153 154/209/154
f 152/211/152 153/210/153 166/199/166
f 151/212/151 152/211/152 166/199/166
f 169/213/167 168/214/168 167/215/169
f 170/216/170 168/214/168 169/213/167
f 171/217/171 170/216/170 169/213/167
f 169/213/167 172/218/172 171/217/171
f 173/219/173 172/218/172 169/213/167
f 146/220/146 173/219/173 169/213/167
f 169/213/167 145/221/147 146/220/146
f 147/222/145 145/221/147 169/213/167
f 149/223/149 147/222/145 169/213/167
f 174/224/174 148/181/148 150/183/150
f 175/225/175 148/181/148 174/224/174
f 176/226/176 148/181/148 175/225/175
f 177/227/177 148/181/148 176/226/176
f 178/228/178 148/181/148 177/227/177
f 179/229/179 148/181/148 178/228/178
f 180/230/180 148/181/148 179/229/179
f 181/231/181 148/181/148 180/230/180
f 182/232/182 148/181/148 181/231/181
f 167/233/169 148/181/148 182/232/182
f 168/234/168 148/181/148 167/233/169
f 170/235/170 148/181/148 168/234/168
f 171/236/171 148/181/148 170/235/170
f 172/237/172 148/181/148 171/236/171
f 173/238/173 148/181/148 172/237/172
f 146/179/146 148/181/148 173/238/173
f 164/239/164 166/199/166 163/201/163
f 165/240/165 166/199/166 164/239/164
f 144/241/144 166/199/166 165/240/165
f 143/242/143 166/199/166 144/241/144
f 141/243/139 166/199/166 143/242/143
f 139/244/141 166/199/166 141/243/139
f 166/199/166 140/245/140 151/212/151
f 139/244/141 140/245/140 166/199/166
f 182/246/182 169/213/167 167/215/169
f 181/247/181 169/213/167 182/246/182
f 180/248/180 169/213/167 181/247/181
f 179/249/179 169/213/167 180/248/180
f 178/250/178 169/213/167 179/249/179
f 177/251/177 169/213/167 178/250/178
f 176/252/176 169/213/167 177/251/177
f 175/253/175 169/213/167 176/252/176
f 174/254/174 169/213/167 175/253/175
f 150/255/150 169/213/167 174/254/174
f 165/198/165 142/175/142 144/177/144
f 169/213/167 150/255/150 149/223/149
